Coordinates
version=1
nRows=10
nColumns=40
inDegrees=yes

Units are S.I. units (second, meters, Newtons, ...)
Angles are in degrees.

endheader
time	pelvis_tilt	pelvis_list	pelvis_rotation	pelvis_tx	pelvis_ty	pelvis_tz	hip_flexion_r	hip_adduction_r	hip_rotation_r	knee_angle_r	knee_angle_r_beta	ankle_angle_r	subtalar_angle_r	mtp_angle_r	hip_flexion_l	hip_adduction_l	hip_rotation_l	knee_angle_l	knee_angle_l_beta	ankle_angle_l	subtalar_angle_l	mtp_angle_l	lumbar_extension	lumbar_bending	lumbar_rotation	arm_flex_r	arm_add_r	arm_rot_r	elbow_flex_r	pro_sup_r	wrist_flex_r	wrist_dev_r	arm_flex_l	arm_add_l	arm_rot_l	elbow_flex_l	pro_sup_l	wrist_flex_l	wrist_dev_l
     40.80750000	     -7.13110185	     -5.64303970	     -0.40454598	      1.06262757	      0.91430097	      0.44412988	      6.19061501	     -1.84283126	    -12.67515792	     36.80986615	     36.80986615	     12.95077746	     -7.04245632	     -9.60809957	     31.93288193	     -7.31369937	     -1.30548624	     28.54993560	     28.54993560	      7.49867792	    -11.33593716	      4.31933052	    -10.19693180	      3.40708888	      3.89999343	     38.94351398	    -12.97584504	      2.83643770	    109.41444315	     44.36514443	      0.00000000	      0.00000000	    -10.30055608	     -6.82090878	      5.19887991	     26.55388463	     44.53148802	      0.00000000	      0.00000000
     40.81914286	     -7.30727898	     -5.58092026	     -0.82155629	      1.06215286	      0.91599568	      0.44285643	      8.53633160	     -2.37203519	    -12.15649421	     41.15887835	     41.15887835	     11.49253978	     -9.71222752	     -9.26142585	     31.18125131	     -7.50306824	     -2.23526648	     28.05356683	     28.05356683	      8.08785561	    -10.36102221	      3.79833058	    -10.06395602	      3.21103417	      3.73180187	     37.23692535	    -12.93136735	      3.35544948	    108.97500566	     44.36290579	      0.00000000	      0.00000000	     -9.45235538	     -7.19782061	      5.11064638	     27.04581469	     44.57370888	      0.00000000	      0.00000000
     40.83078571	     -7.33211030	     -5.36335722	     -1.21873729	      1.06159466	      0.91782898	      0.44161302	     10.80376546	     -3.13212091	    -11.86681280	     45.53426993	     45.53426993	     10.18832185	    -12.02427975	     -8.80770239	     30.21887810	     -7.51769852	     -3.27285756	     27.48229583	     27.48229583	      8.57065007	     -9.49538899	      3.38089178	    -10.10652692	      2.85120401	      3.50243408	     35.43085213	    -12.75157872	      3.92591407	    108.49085951	     44.35649353	      0.00000000	      0.00000000	     -8.45960637	     -7.65010901	      5.01065577	     27.55446547	     44.61339414	      0.00000000	      0.00000000
     40.84242857	     -7.46172915	     -5.21049637	     -1.64903934	      1.06088431	      0.91944027	      0.44061318	     13.27479300	     -3.69075357	    -11.41105078	     49.82217820	     49.82217820	      9.03872670	    -14.50701607	     -7.72824532	     29.31906299	     -7.63393965	     -4.40621216	     26.80355423	     26.80355423	      9.04735733	     -8.33193610	      2.77694174	    -10.02887562	      2.56295638	      3.28531992	     33.52137363	    -12.81669601	      4.48915974	    107.84791567	     44.35640643	      0.00000000	      0.00000000	     -7.54513038	     -8.15910722	      4.86829513	     28.18451846	     44.65974687	      0.00000000	      0.00000000
     40.85407143	     -7.40762841	     -5.23668851	     -2.00779164	      1.06020350	      0.92109240	      0.43989903	     15.62270410	     -3.96783783	    -10.99798217	     54.13122770	     54.13122770	      9.34857945	    -16.10221873	     -2.82689636	     28.34655899	     -8.09011431	     -5.98921300	     26.34933762	     26.34933762	      9.34679154	     -6.26529554	      0.95371399	    -10.12829091	      2.48012947	      3.17422846	     31.57867437	    -13.13814158	      5.21244021	    106.92097957	     44.38022899	      0.00000000	      0.00000000	     -6.65878707	     -8.75675592	      4.56103113	     29.66008286	     44.76194796	      0.00000000	      0.00000000
     40.86571429	     -7.44482279	     -4.94610465	     -2.30695402	      1.05930352	      0.92256757	      0.43882640	     18.15748011	     -4.77777495	    -10.80451064	     58.37339920	     58.37339920	     10.27468422	    -16.65536743	      2.62782026	     27.27788337	     -7.88981485	     -6.87572420	     25.43720983	     25.43720983	      9.29842166	     -5.61286254	     -0.17509882	    -10.12443102	      2.08250832	      2.55950909	     29.72009599	    -12.92964547	      5.82003439	    105.78328875	     44.43123458	      0.00000000	      0.00000000	     -5.81188134	     -9.42523993	      4.30408360	     30.54809611	     44.88758761	      0.00000000	      0.00000000
     40.87735714	     -7.39251205	     -4.72542153	     -2.54915101	      1.05843765	      0.92406253	      0.43777221	     20.36791066	     -5.51395718	    -10.72832251	     61.87516062	     61.87516062	     10.07358831	    -17.55087205	      4.16898616	     26.21769188	     -7.78251889	     -7.86302111	     24.73320653	     24.73320653	      9.59911262	     -4.53683345	     -0.70864831	    -10.21185408	      1.78606417	      2.20084909	     27.64066692	    -13.08779333	      6.27233954	    104.64192944	     44.46576328	      0.00000000	      0.00000000	     -4.62161512	     -9.99371653	      4.09610494	     31.10501831	     44.97539518	      0.00000000	      0.00000000
     40.88900000	     -7.37449090	     -4.43142394	     -2.73559830	      1.05744423	      0.92544083	      0.43657490	     22.55790632	     -6.33263167	    -10.61191358	     64.91036887	     64.91036887	      9.61134963	    -18.14788802	      4.56784543	     25.21087872	     -7.48478048	     -8.59045677	     24.00108275	     24.00108275	      9.90728125	     -3.78266787	     -0.90763228	    -10.24162241	      1.46152941	      1.71210300	     25.46664934	    -13.24771034	      6.68039406	    103.50346512	     44.48430413	      0.00000000	      0.00000000	     -3.34892444	    -10.64698721	      3.92902844	     31.60178512	     45.02744986	      0.00000000	      0.00000000
     40.90064286	     -7.24301568	     -4.28934883	     -2.88323120	      1.05650736	      0.92686383	      0.43557991	     24.55696522	     -6.92041042	    -10.49871053	     67.53263778	     67.53263778	      9.76219741	    -18.36257691	      6.33555456	     24.11425105	     -7.40357298	     -9.48992397	     23.32858836	     23.32858836	     10.22216258	     -2.59195526	     -1.57795056	    -10.41144180	      1.28189842	      1.48344807	     23.30504694	    -13.60375944	      6.69927262	    101.48246551	     44.55201291	      0.00000000	      0.00000000	     -1.84469822	    -11.29465974	      3.68798862	     32.19162274	     45.11014884	      0.00000000	      0.00000000
     40.91228571	     -7.24227739	     -4.12654743	     -2.97429026	      1.05543270	      0.92794167	      0.43445206	     26.60640329	     -7.49835415	    -10.35149649	     69.59721743	     69.59721743	      9.48537370	    -18.49585844	      6.58621345	     23.23804484	     -7.16980307	     -9.94582712	     22.72591487	     22.72591487	     10.54180419	     -2.05243550	     -1.77437767	    -10.46243706	      1.16495117	      0.88232814	     21.02985973	    -13.76174402	      6.99675554	    100.18152495	     44.57782477	      0.00000000	      0.00000000	     -0.55742399	    -11.97211269	      3.51501618	     32.64310135	     45.16027455	      0.00000000	      0.00000000
